<svg xmlns="http://www.w3.org/2000/svg" width="485" height="90" viewBox="0 0 485 90">
  <g id="Group_3" data-name="Group 3" transform="translate(-270 -337)">
    <g id="Group_2" data-name="Group 2" transform="translate(5 3)">
      <g id="Group_1" data-name="Group 1" transform="translate(265 334)">
        <g id="fortmatic-inc-logo-vector" transform="translate(0 0)">
          <path id="Path_2" data-name="Path 2" d="M157.2,349.316h10.645V326.579h19.24v-9.189h-19.24v-14.4h24.318V293.8H157.2Z" transform="translate(-23.986 -275.611)" fill="#120533"/>
          <path id="Path_3" data-name="Path 3" d="M214.116,311.8c-11.036,0-20.216,7.674-20.216,19.516s9.18,19.611,20.216,19.611,20.216-7.768,20.216-19.611C234.235,319.474,225.055,311.8,214.116,311.8Zm0,29.558a10.122,10.122,0,0,1-7.314-2.894,9.505,9.505,0,0,1-2.843-7.148,10.162,10.162,0,0,1,20.314,0,9.864,9.864,0,0,1-10.157,10.042Z" transform="translate(-24.843 -276.558)" fill="#120533"/>
          <path id="Path_4" data-name="Path 4" d="M290.291,297.5H280.232v14.305H273.2v7.863h7.032v29.747h10.059V319.763h8.2V311.9h-8.2Z" transform="translate(-26.696 -275.805)" fill="#120533"/>
          <path id="Path_5" data-name="Path 5" d="M352,311.8a13.524,13.524,0,0,0-12.208,7.105c-2.149-4.642-6.251-6.726-12.4-7.011-3.614,0-8.985,1.705-11.134,6.253v-5.589H306.1v37.611h10.157V330.084c0-6.442,4-8.811,8.106-8.811,4,0,7.032,2.937,7.129,8.147v20.747H341.65V330.084c0-5.684,3.321-8.811,7.911-8.811,4.2,0,7.325,2.937,7.325,8.337v20.463h10.059V328.568C366.945,317.674,361.378,311.8,352,311.8Z" transform="translate(-27.464 -276.558)" fill="#120533"/>
          <path id="Path_6" data-name="Path 6" d="M407.241,317.295c-2.832-4.168-8.594-5.495-12.013-5.495-10.255,0-19.728,7.484-19.728,19.611s9.571,19.611,19.728,19.611c3.809,0,9.571-1.705,12.013-5.589v4.832H417.4V312.653H407.241ZM396.6,341.547a10.142,10.142,0,1,1,0-20.274c5.274,0,10.645,3.6,10.645,10.137,0,6.442-5.176,10.137-10.645,10.137Z" transform="translate(-29.085 -276.558)" fill="#120533"/>
          <path id="Path_7" data-name="Path 7" d="M443.291,297.5H433.232v14.305H426.2v7.863h7.032v29.747h10.059V319.763h8.2V311.9h-8.2Z" transform="translate(-30.27 -275.805)" fill="#120533"/>
          <path id="Path_8" data-name="Path 8" d="M464.944,291a6.381,6.381,0,0,0-4.537,1.611,6,6,0,0,0-2.007,4.263,6.327,6.327,0,0,0,6.544,5.968,6.417,6.417,0,0,0,4.3-1.705A5.784,5.784,0,0,0,471,296.968a6.031,6.031,0,0,0-1.758-4.168,6.314,6.314,0,0,0-4.3-1.8Z" transform="translate(-31.022 -275.463)" fill="#120533"/>
          <path id="Path_9" data-name="Path 9" d="M469.959,312.6H459.9v37.611h10.059Z" transform="translate(-31.057 -276.6)" fill="#120533"/>
          <path id="Path_10" data-name="Path 10" d="M508.406,337.858a9.55,9.55,0,0,1-3.614,2.842,10.321,10.321,0,0,1-4.493.947,10.823,10.823,0,0,1-7.654-2.957,10.175,10.175,0,0,1-3.187-7.37c0-6.158,5.274-9.947,10.841-9.947a10.321,10.321,0,0,1,4.493.947,11.31,11.31,0,0,1,3.614,2.747l8.008-5.874c-3.614-4.642-9.669-7.295-16.115-7.295-11.134,0-20.9,7.674-20.9,19.516s9.766,19.705,20.9,19.705a20.6,20.6,0,0,0,16.212-7.389Z" transform="translate(-31.512 -276.563)" fill="#120533"/>
          <path id="Path_11" data-name="Path 11" d="M242.5,312.6v37.611h10.157V321.221h9.18a4.939,4.939,0,0,0,3.436-1.551,4.643,4.643,0,0,0,1.252-3.47v-3.6H242.5Z" transform="translate(-25.979 -276.6)" fill="#120533"/>
          <path id="Path_12" data-name="Path 12" d="M90.435,274.6H20.8v89.905H44.044V297.242h69.732V274.695H90.435Z" transform="translate(-20.8 -274.6)" fill="#617bff"/>
          <path id="Path_13" data-name="Path 13" d="M68.5,344.558H91.549v22.547h.879a22.7,22.7,0,0,0,15.822-6.347,21.346,21.346,0,0,0,6.543-15.347V322.2H68.5Z" transform="translate(-21.914 -277.105)" fill="#617bff"/>
        </g>
      </g>
    </g>
  </g>
</svg>
