<svg xmlns="http://www.w3.org/2000/svg" width="490.147" height="87.794" viewBox="0 0 490.147 87.794">
  <g id="Group_1" data-name="Group 1" transform="translate(-264.853 -167.853)">
    <g id="surface1" transform="translate(88.574 132.75)">
      <path id="Path_1" data-name="Path 1" d="M520.556,75.014c-2.546-1.644-5.351-2.807-8.007-4.266a34.481,34.481,0,0,1-5.052-2.991c-2.546-2.041-2.023-6.051.638-7.8,3.816-2.477,10.139-1.1,10.812,3.975,0,.107.115.179.225.179h5.766a.2.2,0,0,0,.223-.252,10.994,10.994,0,0,0-4.23-8.281,13.624,13.624,0,0,0-8.156-2.734c-15.233,0-16.618,15.718-8.421,20.673.936.587,8.984,4.523,11.824,6.235a5.634,5.634,0,0,1,2.51,7.331,7.433,7.433,0,0,1-6.961,3.646c-3.184-.184-5.649-1.862-6.512-4.485a7.808,7.808,0,0,1-.225-1.789.242.242,0,0,0-.225-.218h-6.253a.242.242,0,0,0-.224.218c0,4.412,1.126,6.855,4.2,9.081a15.283,15.283,0,0,0,9.278,2.987c8.535,0,12.95-4.7,13.846-9.585C526.4,82.161,524.937,77.856,520.556,75.014Zm0,0" transform="translate(88.692 4.242)" fill="#161616"/>
      <path id="Path_2" data-name="Path 2" d="M308.793,53.492h-5.805a.258.258,0,0,0-.224.145l-5.128,16.479a.235.235,0,0,1-.448,0L292.06,53.638a.2.2,0,0,0-.223-.145h-9.542a.238.238,0,0,0-.224.218V95.783a.238.238,0,0,0,.224.218h6.249a.239.239,0,0,0,.228-.218V63.809a.234.234,0,0,1,.449-.073l5.162,16.59.374,1.164a.2.2,0,0,0,.223.145h4.794A.258.258,0,0,0,300,81.49l.374-1.164,5.162-16.59a.229.229,0,0,1,.448.073V95.783a.238.238,0,0,0,.224.218h6.254a.238.238,0,0,0,.223-.218V53.71a.238.238,0,0,0-.223-.218Zm0,0" transform="translate(29.111 4.399)" fill="#161616"/>
      <path id="Path_3" data-name="Path 3" d="M445.241,53.492a.246.246,0,0,0-.223.145L439.89,70.117a.235.235,0,0,1-.448,0l-5.128-16.479a.206.206,0,0,0-.225-.145h-9.507a.234.234,0,0,0-.225.218V95.783a.234.234,0,0,0,.225.218h6.249a.234.234,0,0,0,.223-.218V63.809a.234.234,0,0,1,.449-.073l5.167,16.59.374,1.164a.205.205,0,0,0,.223.145h4.788a.246.246,0,0,0,.225-.145l.379-1.164,5.162-16.59a.229.229,0,0,1,.448.073V95.783A.238.238,0,0,0,448.5,96h6.249a.238.238,0,0,0,.228-.218V53.71a.238.238,0,0,0-.228-.218Zm0,0" transform="translate(68.32 4.399)" fill="#161616"/>
      <path id="Path_4" data-name="Path 4" d="M383.962,53.492H354.435a.238.238,0,0,0-.224.218v5.25a.242.242,0,0,0,.224.218H365.85v36.6a.238.238,0,0,0,.224.218h6.248a.239.239,0,0,0,.23-.218v-36.6h11.41a.238.238,0,0,0,.224-.218V53.71A.211.211,0,0,0,383.962,53.492Zm0,0" transform="translate(48.99 4.399)" fill="#161616"/>
      <path id="Path_5" data-name="Path 5" d="M412.095,96.029h5.69a.235.235,0,0,0,.223-.291L406.254,53.52a.2.2,0,0,0-.223-.145h-8.157a.26.26,0,0,0-.225.145L385.9,95.738a.234.234,0,0,0,.224.291h5.685a.246.246,0,0,0,.225-.145L395.442,83.6a.2.2,0,0,1,.224-.145h12.571a.26.26,0,0,1,.23.145l3.4,12.285A.3.3,0,0,0,412.095,96.029ZM397.162,77.437,401.731,61a.233.233,0,0,1,.448,0l4.564,16.44a.232.232,0,0,1-.223.291h-9.134A.235.235,0,0,1,397.162,77.437Zm0,0" transform="translate(57.72 4.371)" fill="#161616"/>
      <path id="Path_6" data-name="Path 6" d="M488.138,96.029h5.69a.235.235,0,0,0,.223-.291L482.3,53.52a.2.2,0,0,0-.223-.145h-8.162a.26.26,0,0,0-.224.145L461.943,95.738a.234.234,0,0,0,.224.291h5.69a.258.258,0,0,0,.225-.145l3.4-12.285a.206.206,0,0,1,.224-.145h12.576a.259.259,0,0,1,.224.145l3.4,12.285A.258.258,0,0,0,488.138,96.029ZM473.208,77.437,477.774,61a.233.233,0,0,1,.448,0l4.564,16.44a.232.232,0,0,1-.225.291h-9.128A.234.234,0,0,1,473.208,77.437Zm0,0" transform="translate(78.674 4.371)" fill="#161616"/>
      <path id="Path_7" data-name="Path 7" d="M327.409,89.76V76.708a.238.238,0,0,1,.225-.218h16.651a.238.238,0,0,0,.224-.218V71.021a.234.234,0,0,0-.224-.218H327.633a.238.238,0,0,1-.225-.218V59.43a.234.234,0,0,1,.225-.218h18.933a.239.239,0,0,0,.224-.223V53.743a.239.239,0,0,0-.224-.223H320.932a.243.243,0,0,0-.224.223V95.776a.238.238,0,0,0,.224.218h26.423a.237.237,0,0,0,.223-.218V90.235a.241.241,0,0,0-.223-.218H327.592A.249.249,0,0,1,327.409,89.76Zm0,0" transform="translate(39.758 4.405)" fill="#161616"/>
      <path id="Path_8" data-name="Path 8" d="M567.865,95.631,546.235,73.867a.222.222,0,0,1,0-.3l19.457-19.684a.211.211,0,0,0-.151-.368h-7.967a.2.2,0,0,0-.149.073l-16.5,16.7a.22.22,0,0,1-.379-.145V53.743a.239.239,0,0,0-.224-.223h-6.249a.243.243,0,0,0-.223.223V95.815a.242.242,0,0,0,.223.218h6.249a.238.238,0,0,0,.224-.218V77.29a.224.224,0,0,1,.379-.145l18.71,18.816a.282.282,0,0,0,.149.073h7.972C567.9,95.994,568.014,95.742,567.865,95.631Zm0,0" transform="translate(98.49 4.405)" fill="#161616"/>
      <path id="Path_9" data-name="Path 9" d="M115.551,35.25,77.718,62.594l7.035-16.115Zm0,0" transform="translate(152.935)" fill="#e17726" stroke="#e17726" stroke-linecap="round" stroke-linejoin="round" stroke-width="0.294"/>
      <path id="Path_10" data-name="Path 10" d="M38.96,35.25l37.5,27.6-6.7-16.372Zm0,0" transform="translate(142.254)" fill="#e27625" stroke="#e27625" stroke-linecap="round" stroke-linejoin="round" stroke-width="0.294"/>
      <path id="Path_11" data-name="Path 11" d="M98.873,86.332,88.808,101.356l21.555,5.794,6.174-20.488Zm0,0" transform="translate(155.99 12.318)" fill="#e27625" stroke="#e27625" stroke-linecap="round" stroke-linejoin="round" stroke-width="0.294"/>
      <path id="Path_12" data-name="Path 12" d="M35.823,86.662l6.134,20.488,21.52-5.794L53.447,86.332Zm0,0" transform="translate(141.39 12.318)" fill="#e27625" stroke="#e27625" stroke-linecap="round" stroke-linejoin="round" stroke-width="0.294"/>
      <path id="Path_13" data-name="Path 13" d="M57.887,68.344,51.9,77.168l21.331.95L72.521,55.7Zm0,0" transform="translate(145.819 4.93)" fill="#e27625" stroke="#e27625" stroke-linecap="round" stroke-linejoin="round" stroke-width="0.294"/>
      <path id="Path_14" data-name="Path 14" d="M93.06,68.394,78.2,55.488l-.483,22.68,21.331-.95Zm0,0" transform="translate(152.935 4.88)" fill="#e27625" stroke="#e27625" stroke-linecap="round" stroke-linejoin="round" stroke-width="0.294"/>
      <path id="Path_15" data-name="Path 15" d="M57.5,101.264l12.91-6.089L59.3,86.715Zm0,0" transform="translate(147.364 12.41)" fill="#e27625" stroke="#e27625" stroke-linecap="round" stroke-linejoin="round" stroke-width="0.294"/>
      <path id="Path_16" data-name="Path 16" d="M78.714,95.175l12.875,6.089L89.83,86.715Zm0,0" transform="translate(153.209 12.41)" fill="#e27625" stroke="#e27625" stroke-linecap="round" stroke-linejoin="round" stroke-width="0.294"/>
      <path id="Path_17" data-name="Path 17" d="M91.589,99.62,78.714,93.531,79.76,101.7l-.11,3.466Zm0,0" transform="translate(153.209 14.054)" fill="#d5bfb2" stroke="#d5bfb2" stroke-linecap="round" stroke-linejoin="round" stroke-width="0.294"/>
      <path id="Path_18" data-name="Path 18" d="M57.5,99.62l11.973,5.542L69.4,101.7l1.012-8.164Zm0,0" transform="translate(147.364 14.054)" fill="#d5bfb2" stroke="#d5bfb2" stroke-linecap="round" stroke-linejoin="round" stroke-width="0.294"/>
      <path id="Path_19" data-name="Path 19" d="M69.378,83.621l-10.7-3.064,7.559-3.389Zm0,0" transform="translate(147.687 10.108)" fill="#233447" stroke="#233447" stroke-linecap="round" stroke-linejoin="round" stroke-width="0.294"/>
      <path id="Path_20" data-name="Path 20" d="M79.273,83.621l3.144-6.453,7.594,3.389Zm0,0" transform="translate(153.363 10.108)" fill="#233447" stroke="#233447" stroke-linecap="round" stroke-linejoin="round" stroke-width="0.294"/>
      <path id="Path_21" data-name="Path 21" d="M59.67,101.356l1.868-15.024-11.9.33Zm0,0" transform="translate(145.197 12.318)" fill="#cc6228" stroke="#cc6228" stroke-linecap="round" stroke-linejoin="round" stroke-width="0.294"/>
      <path id="Path_22" data-name="Path 22" d="M87.37,86.332,89.2,101.356,99.269,86.662Zm0,0" transform="translate(155.594 12.318)" fill="#cc6228" stroke="#cc6228" stroke-linecap="round" stroke-linejoin="round" stroke-width="0.294"/>
      <path id="Path_23" data-name="Path 23" d="M99.049,73l-21.331.95L79.7,84.627l3.144-6.453,7.594,3.389Zm0,0" transform="translate(152.935 9.102)" fill="#cc6228" stroke="#cc6228" stroke-linecap="round" stroke-linejoin="round" stroke-width="0.294"/>
      <path id="Path_24" data-name="Path 24" d="M60.542,81.563,68.1,78.174l3.144,6.453,1.983-10.68L51.9,73Zm0,0" transform="translate(145.819 9.102)" fill="#cc6228" stroke="#cc6228" stroke-linecap="round" stroke-linejoin="round" stroke-width="0.294"/>
      <path id="Path_25" data-name="Path 25" d="M51.9,73l8.944,17.027-.3-8.46Zm0,0" transform="translate(145.819 9.102)" fill="#e27525" stroke="#e27525" stroke-linecap="round" stroke-linejoin="round" stroke-width="0.294"/>
      <path id="Path_26" data-name="Path 26" d="M87.763,81.563l-.334,8.46L96.373,73Zm0,0" transform="translate(155.61 9.102)" fill="#e27525" stroke="#e27525" stroke-linecap="round" stroke-linejoin="round" stroke-width="0.294"/>
      <path id="Path_27" data-name="Path 27" d="M69.049,73.762l-1.983,10.68,2.507,12.615.563-16.624Zm0,0" transform="translate(149.999 9.287)" fill="#e27525" stroke="#e27525" stroke-linecap="round" stroke-linejoin="round" stroke-width="0.294"/>
      <path id="Path_28" data-name="Path 28" d="M77.945,73.762l-1.052,6.632.523,16.663,2.511-12.615Zm0,0" transform="translate(152.707 9.287)" fill="#e27525" stroke="#e27525" stroke-linecap="round" stroke-linejoin="round" stroke-width="0.294"/>
      <path id="Path_29" data-name="Path 29" d="M79.815,82.962,77.3,95.577l1.8,1.241,11.116-8.46.334-8.46Zm0,0" transform="translate(152.82 10.766)" fill="#f5841f" stroke="#f5841f" stroke-linecap="round" stroke-linejoin="round" stroke-width="0.294"/>
      <path id="Path_30" data-name="Path 30" d="M58.675,79.9l.3,8.46,11.116,8.46,1.794-1.241L69.378,82.962Zm0,0" transform="translate(147.687 10.766)" fill="#f5841f" stroke="#f5841f" stroke-linecap="round" stroke-linejoin="round" stroke-width="0.294"/>
      <path id="Path_31" data-name="Path 31" d="M85.5,103.979l.11-3.466-.971-.8h-14.3l-.937.8.075,3.466L57.5,98.437l4.191,3.35,8.5,5.726H84.744l8.535-5.726,4.155-3.35Zm0,0" transform="translate(147.364 15.237)" fill="#c0ac9d" stroke="#c0ac9d" stroke-linecap="round" stroke-linejoin="round" stroke-width="0.294"/>
      <path id="Path_32" data-name="Path 32" d="M81.989,93.772l-1.8-1.241H69.637l-1.794,1.241-1.012,8.164.937-.8h14.3l.971.8Zm0,0" transform="translate(149.935 13.813)" fill="#161616" stroke="#161616" stroke-linecap="round" stroke-linejoin="round" stroke-width="0.294"/>
      <path id="Path_33" data-name="Path 33" d="M116.886,64.378l3.179-15.093L115.277,35.25,78.714,61.682,92.785,73.274l19.871,5.653,4.38-4.994-1.908-1.353,3.029-2.7-2.322-1.75,3.034-2.259Zm0,0" transform="translate(153.209)" fill="#763e1a" stroke="#763e1a" stroke-linecap="round" stroke-linejoin="round" stroke-width="0.294"/>
      <path id="Path_34" data-name="Path 34" d="M35.206,49.285l3.219,15.093-2.058,1.5,3.069,2.259-2.322,1.75,3.029,2.7-1.908,1.353,4.38,4.994,19.871-5.653L76.557,61.682,39.994,35.25Zm0,0" transform="translate(141.22)" fill="#763e1a" stroke="#763e1a" stroke-linecap="round" stroke-linejoin="round" stroke-width="0.294"/>
      <path id="Path_35" data-name="Path 35" d="M110.255,71.54,90.384,65.887l5.989,8.824L87.429,91.737l11.824-.145h17.664Zm0,0" transform="translate(155.61 7.388)" fill="#f5841f" stroke="#f5841f" stroke-linecap="round" stroke-linejoin="round" stroke-width="0.294"/>
      <path id="Path_36" data-name="Path 36" d="M62.316,65.887,42.445,71.54,35.823,91.592H53.447l11.824.145L56.327,74.71Zm0,0" transform="translate(141.39 7.388)" fill="#f5841f" stroke="#f5841f" stroke-linecap="round" stroke-linejoin="round" stroke-width="0.294"/>
      <path id="Path_37" data-name="Path 37" d="M81.745,80.867,83.015,59.5,88.78,44.3H63.1l5.765,15.2L70.14,80.867l.488,6.705.035,16.59H81.217l.04-16.59Zm0,0" transform="translate(148.908 2.182)" fill="#f5841f" stroke="#f5841f" stroke-linecap="round" stroke-linejoin="round" stroke-width="0.294"/>
    </g>
  </g>
</svg>
