<?xml version="1.0" encoding="utf-8"?>
<!-- Generator: Adobe Illustrator 19.2.1, SVG Export Plug-In . SVG Version: 6.00 Build 0)  -->
<svg version="1.1" id="layer" xmlns="http://www.w3.org/2000/svg" xmlns:xlink="http://www.w3.org/1999/xlink" x="0px" y="0px"
	 viewBox="0 0 652 652" style="enable-background:new 0 0 652 652;" xml:space="preserve">
<style type="text/css">
	.st0{fill:#3996FF;}
</style>
<path class="st0" d="M293.4,325c0.1,9.7-1.4,19.3-4.7,28.4c-2.9,8.1-7.3,15.5-13.2,21.7c-5.7,6-12.7,10.8-20.3,13.9
	c-16.8,6.5-35.5,6.5-52.3,0c-7.7-3.1-14.6-7.9-20.3-13.9c-5.8-6.3-10.3-13.7-13.2-21.7c-3.2-9.1-4.8-18.7-4.7-28.4
	c-0.1-9.6,1.5-19.2,4.7-28.3c2.9-8.1,7.3-15.5,13.2-21.7c5.7-6,12.6-10.8,20.3-14c8.3-3.4,17.2-5.1,26.1-5c9-0.1,17.9,1.6,26.2,4.9
	c7.7,3.1,14.6,7.9,20.3,14c5.8,6.3,10.3,13.7,13.2,21.8C291.9,305.8,293.5,315.4,293.4,325z M283.2,325c0.1-8.6-1.1-17.2-3.8-25.4
	c-2.3-7-6.1-13.5-11.1-19c-4.8-5.2-10.7-9.3-17.2-12c-14.2-5.5-29.9-5.5-44,0c-6.6,2.7-12.4,6.8-17.2,12c-5,5.5-8.8,12.1-11.2,19.1
	c-2.7,8.1-4.1,16.7-4,25.3c-0.1,8.6,1.2,17.2,3.9,25.4c2.4,7,6.2,13.5,11.2,19c4.8,5.2,10.7,9.3,17.2,11.9c14.2,5.4,29.9,5.4,44,0
	c6.6-2.6,12.5-6.7,17.2-11.9c5-5.5,8.7-12,11.1-19C282.1,342.2,283.4,333.6,283.2,325z"/>
<path class="st0" d="M406.6,393.9h-8.5c-1,0-1.9-0.2-2.8-0.5c-0.9-0.4-1.6-1.1-2.1-1.9L349,335.5c-0.5-0.7-1-1.3-1.6-1.9
	c-0.6-0.5-1.2-0.9-1.9-1.2c-0.8-0.3-1.6-0.5-2.4-0.6c-1.1-0.2-2.3-0.2-3.5-0.2h-18.1v62.3h-10V256.1h35.3c15.8,0,27.7,3.1,35.6,9.2
	s11.9,15.1,11.9,27c0.1,4.9-0.9,9.8-2.7,14.4c-1.8,4.3-4.5,8.2-7.8,11.5c-3.6,3.4-7.8,6.1-12.4,8c-5.2,2.2-10.7,3.6-16.3,4.2
	c1.6,1,3,2.3,4.2,3.8L406.6,393.9z M345.3,324.2c5.5,0.1,11.1-0.7,16.4-2.2c4.5-1.3,8.6-3.4,12.3-6.3c3.3-2.6,5.9-6,7.7-9.8
	c1.8-4.1,2.7-8.5,2.6-13c0-9.8-3.2-17.1-9.6-21.8c-6.4-4.7-15.7-7.1-27.9-7.1h-25.2v60.2H345.3z"/>
<path class="st0" d="M474.3,385.2c6,0.1,12-1.1,17.6-3.4c5-2.2,9.5-5.4,13.1-9.5c3.7-4.2,6.5-9,8.2-14.3c1.9-5.7,2.9-11.7,2.8-17.7
	v-84.2h9.8v84.2c0.1,7.2-1.1,14.3-3.6,21.1c-2.3,6.3-5.7,12.1-10.3,17c-4.5,4.9-10.1,8.9-16.3,11.5c-13.8,5.5-29.2,5.5-43,0
	c-6.2-2.6-11.7-6.5-16.3-11.5c-4.5-4.9-8-10.7-10.3-17c-2.4-6.8-3.6-13.9-3.6-21.1v-84.2h9.9v84.1c-0.1,6,0.9,12,2.8,17.8
	c1.8,5.3,4.5,10.1,8.2,14.3c3.6,4.1,8.1,7.4,13.1,9.6C462.2,384.2,468.2,385.3,474.3,385.2z"/>
<path class="st0" d="M620.6,274c-0.4,1-1.4,1.6-2.5,1.6c-1.2-0.2-2.4-0.8-3.2-1.8c-1.7-1.4-3.4-2.7-5.3-3.8c-2.6-1.6-5.4-3-8.3-3.9
	c-8.2-2.5-17-2.5-25.2,0.2c-3.5,1.3-6.7,3.2-9.3,5.7c-2.5,2.4-4.4,5.2-5.7,8.4c-1.3,3.2-1.9,6.6-1.9,10c-0.2,4,0.8,7.9,2.9,11.3
	c2,3.1,4.6,5.7,7.7,7.7c3.4,2.2,7,4,10.8,5.3c4,1.4,8.2,2.8,12.4,4.2c4.2,1.4,8.4,2.9,12.4,4.6c3.9,1.6,7.5,3.7,10.8,6.3
	c3.2,2.6,5.8,5.8,7.7,9.4c2.1,4.3,3.1,9.1,2.9,13.9c0,5.4-0.9,10.9-2.9,15.9c-1.9,4.9-4.7,9.3-8.4,13c-3.9,3.8-8.5,6.8-13.5,8.7
	c-5.8,2.2-12.1,3.3-18.3,3.2c-7.9,0.2-15.8-1.4-23-4.7c-6.4-3.2-12.1-7.5-16.8-12.9l2.7-4.2c0.6-0.9,1.6-1.4,2.7-1.4
	c0.8,0.1,1.6,0.5,2.2,1.1l3.2,2.8c1.3,1.1,2.8,2.3,4.6,3.6c1.9,1.4,4,2.6,6.2,3.6c5.8,2.7,12.1,4,18.5,3.9c4.9,0.1,9.7-0.7,14.3-2.4
	c3.9-1.5,7.5-3.8,10.6-6.7c2.9-2.8,5.1-6.2,6.6-10c1.5-3.9,2.3-8.1,2.3-12.3c0.2-4.1-0.8-8.2-2.9-11.8c-2-3.1-4.6-5.7-7.7-7.7
	c-3.4-2.2-7-3.9-10.8-5.2c-4-1.4-8.2-2.8-12.4-4.1s-8.4-2.8-12.4-4.5c-3.9-1.6-7.5-3.7-10.8-6.3c-3.2-2.6-5.8-5.9-7.7-9.6
	c-2.1-4.5-3.1-9.5-2.9-14.4c0-4.5,0.9-8.9,2.6-13.1c1.7-4.2,4.3-7.9,7.5-11.1c3.5-3.3,7.7-5.9,12.3-7.7c5.3-2.1,10.9-3.1,16.6-3
	c6.4-0.1,12.8,1,18.8,3.3c5.7,2.3,10.9,5.8,15.2,10.2L620.6,274z"/>
<rect x="26.7" y="256.1" class="st0" width="76.6" height="41.6"/>
<rect x="61.7" y="256.1" class="st0" width="41.6" height="137.8"/>
<circle class="st0" cx="134.3" cy="276.8" r="20.8"/>
</svg>
